<svg width="131" height="40" fill="none" xmlns="http://www.w3.org/2000/svg"><mask id="a" style="mask-type:luminance" maskUnits="userSpaceOnUse" x="0" y="0" width="114" height="40"><path d="M114 0H0v40h114V0z" fill="#fff"/></mask><g mask="url(#a)"><path d="M34 26.262v-2.857l-12.75-7.143V8.405c0-1.186-1.005-3.571-2.25-3.571s-2.25 2.385-2.25 3.57v7.858L4 23.405v2.857l12.75-3.571v7.857L13 32.69v2.142l6-1.428 6 1.428v-2.142l-3.75-2.143V22.69L34 26.262z" fill="#11397E"/><path d="M1 20.334c0-9.937 8.064-18 18-18 9.937 0 18 8.063 18 18 0 9.936-8.063 18-18 18-9.936 0-18-8.064-18-18z" stroke="#11397E" stroke-width="2"/><path d="m50.76 15.44 3.052 8.858-.558-.244 1.223.234-.068.879h-4.025l.067-.899c.282-.13.648-.24 1.098-.332l-.193.264-2.58-8.096-.386-.615c.34-.032.713-.052 1.117-.058.411-.013.828-.01 1.252.01zm-1.05.059-2.832 8.799-.222-.274 1.233.264-.067.879h-3.063l.067-.86c.122-.071.283-.136.482-.195.199-.065.417-.123.655-.175l-.607.36 3.034-8.808 1.32.01zm-2.986 7.08.318-1.21h4.632l.328 1.21h-5.278zm9.92 2.441v-9.384h2.31v9.384h-2.31zm-.906.147.067-.86a7.05 7.05 0 0 1 1.204-.38l-.366.996V23.39h2.312v1.533l-.337-.918 1.28.283-.067.879h-4.093zm4.122-9.668-.068.86a7.05 7.05 0 0 1-1.203.38l.366-.996v1.533h-2.312v-1.533l.337.918-1.28-.283.067-.879h4.093zm8.185 9.668-2.956-3.965 2.302-.654 2.927 3.75-.866-.293 1.29.244-.067.918h-2.63zm-2.648-3.594c-.642 0-1.329-.039-2.06-.117l.143-1.172c.726.078 1.423.117 2.09.117 1.047 0 1.57-.618 1.57-1.855 0-1.185-.497-1.777-1.493-1.777H63.53v-1.27h2.205c1.271 0 2.248.244 2.928.732.68.482 1.021 1.179 1.021 2.09 0 .795-.26 1.449-.78 1.963-.514.508-1.255.837-2.225.986l-.606.264a6.083 6.083 0 0 1-.675.039zm-2.899 3.447v-9.384h2.312v9.384h-2.312zm-.905.147.067-.86a7.05 7.05 0 0 1 1.204-.38l-.366.996V23.39h2.312v1.533l-.318-.918 1.184.283-.067.879h-4.016zm4.122-9.668-.068.86a7.05 7.05 0 0 1-1.203.38l.366-.996v1.533h-2.312v-1.533l.337.918-1.28-.283.067-.879h4.093zm8.292 9.727-2.505-8.868.55.254-1.223-.234.067-.879h4.102l-.067.879c-.257.117-.661.228-1.213.332l.211-.293 2.014 8.008.279.752c-.295.032-.649.052-1.06.058-.41.013-.795.01-1.155-.01zm2.215-.05-1.224-.146 2.283-9.209 1.32.01-2.379 9.346zm3.361.05-2.147-8.79-.155-.615c.321-.032.668-.052 1.04-.058.373-.013.739-.013 1.098 0l2.08 8.652.3.762a11.49 11.49 0 0 1-1.06.058c-.411.013-.796.01-1.156-.01zm2.215-.05-1.242-.155 2.225-8.653.26.274-1.339-.264.067-.879h3.12l-.066.86c-.123.064-.283.13-.482.195-.193.065-.411.123-.655.176l.588-.352-2.476 8.799zm9.043-9.736 3.054 8.858-.56-.244 1.224.234-.067.879h-4.026l.067-.899c.283-.13.649-.24 1.098-.332l-.193.264-2.581-8.096-.385-.615c.34-.032.713-.052 1.118-.058.41-.013.827-.01 1.251.01zm-1.05.059-2.83 8.799-.222-.274 1.232.264-.067.879H84.84l.068-.86c.121-.071.282-.136.481-.195.2-.065.418-.123.655-.175l-.607.36 3.034-8.808 1.32.01zm-2.985 7.08.318-1.21h4.633l.327 1.21h-5.278zm10.988-.771-2.793-5.44.587.244-1.222-.234.067-.879h4.122l-.067.879c-.257.117-.661.228-1.214.332l.174-.244 2.31 4.668.328.625-2.292.049zm.935-.059 2.61-5.38.212.273-1.349-.264.068-.879h3.158l-.067.86a3.05 3.05 0 0 1-.482.195 5.916 5.916 0 0 1-.654.176l.645-.362-2.784 5.39-1.357-.009zm-.945 3.271v-3.896h2.312v3.896h-2.312zm-1.059.147.068-.86c.186-.077.394-.146.626-.204.237-.06.481-.108.732-.147l-.367.967V23.39h2.312v1.533l-.337-.908 1.435.273-.067.879h-4.402zm11.037.156c-1.272 0-2.305-.293-3.101-.879-.161-1.06-.2-1.963-.116-2.705h.992l1.137 2.451-.829-.654c.694.397 1.407.596 2.139.596.501 0 .886-.101 1.155-.303.27-.202.405-.488.405-.86 0-.312-.106-.569-.318-.77-.212-.21-.555-.388-1.031-.538l-1.117-.351c-1.682-.528-2.523-1.498-2.523-2.91 0-.932.33-1.674.992-2.227.661-.554 1.55-.83 2.667-.83 1.021 0 1.946.215 2.774.644.128.886.167 1.69.116 2.412h-1.03l-.944-1.992 1.001.723c-.751-.397-1.464-.596-2.138-.596-.905 0-1.358.361-1.358 1.084 0 .32.112.586.337.8.231.216.601.405 1.108.567l1.117.352c1.644.52 2.466 1.468 2.466 2.842 0 .963-.354 1.728-1.06 2.295-.7.566-1.647.85-2.841.85z" fill="#11397E"/></g></svg>