<svg width="115" height="40" viewBox="0 0 115 40" fill="none" xmlns="http://www.w3.org/2000/svg">
<mask id="mask0_232_4892" style="mask-type:luminance" maskUnits="userSpaceOnUse" x="0" y="0" width="114" height="40">
<path d="M114 0H0V40H114V0Z" fill="white"/>
</mask>
<g mask="url(#mask0_232_4892)">
<path d="M34 26.2618V23.4049L21.25 16.2619V8.40477C21.25 7.21909 20.245 4.83337 19 4.83337C17.755 4.83337 16.75 7.21909 16.75 8.40477V16.2619L4 23.4049V26.2618L16.75 22.6906V30.5477L13 32.6906V34.8334L19 33.4049L25 34.8334V32.6906L21.25 30.5477V22.6906L34 26.2618Z" class="svg-color"/>
<path d="M1 20.3334C1 10.3969 9.06356 2.33337 19 2.33337C28.9366 2.33337 37 10.3969 37 20.3334C37 30.2699 28.9366 38.3334 19 38.3334C9.06355 38.3334 1 30.2699 1 20.3334Z" class="svg-stroke" stroke-width="2"/>
<path d="M50.7592 15.4402L53.8123 24.2976L53.2537 24.0535L54.4769 24.2878L54.4094 25.1667H50.3836L50.451 24.2683C50.7335 24.1381 51.0994 24.0274 51.5489 23.9363L51.3563 24.1999L48.7751 16.1042L48.3899 15.489C48.7302 15.4565 49.1026 15.4369 49.5071 15.4304C49.9181 15.4174 50.3354 15.4207 50.7592 15.4402ZM49.7094 15.4987L46.8778 24.2976L46.6562 24.0241L47.889 24.2878L47.8216 25.1667H44.7589L44.8263 24.3073C44.9483 24.2357 45.1088 24.1707 45.3079 24.1121C45.5069 24.0469 45.7252 23.9883 45.9628 23.9363L45.356 24.2976L48.3899 15.489L49.7094 15.4987ZM46.7237 22.5789L47.0415 21.3679H51.6742L52.0016 22.5789H46.7237ZM56.6431 25.0203V15.6355H58.9546V25.0203H56.6431ZM55.7377 25.1667L55.8052 24.3073C56.1134 24.1707 56.5147 24.0437 57.0091 23.9265L56.6431 24.9226V23.3894H58.9546V24.9226L58.6175 24.0046L59.8985 24.2878L59.831 25.1667H55.7377ZM59.8599 15.4987L59.7925 16.3581C59.4843 16.4949 59.083 16.6218 58.5886 16.739L58.9546 15.7429V17.2761H56.6431V15.7429L56.9802 16.6609L55.6992 16.3777L55.7667 15.4987H59.8599ZM68.0454 25.1667L65.0889 21.2019L67.3906 20.5476L70.3184 24.2976L69.4518 24.0046L70.7424 24.2487L70.6747 25.1667H68.0454ZM65.3971 21.573C64.7551 21.573 64.068 21.5339 63.3361 21.4558L63.4805 20.2839C64.206 20.3621 64.9027 20.4011 65.5705 20.4011C66.6173 20.4011 67.1407 19.7826 67.1407 18.5457C67.1407 17.3607 66.643 16.7683 65.6475 16.7683H63.5287V15.4987H65.7342C67.0053 15.4987 67.9816 15.7429 68.6621 16.2312C69.3426 16.7129 69.6832 17.4096 69.6832 18.321C69.6832 19.1153 69.4229 19.7696 68.9028 20.2839C68.3893 20.7917 67.6476 21.1205 66.6778 21.2703L66.0716 21.5339C65.9686 21.5469 65.8594 21.5567 65.7439 21.5632C65.6283 21.5697 65.5127 21.573 65.3971 21.573ZM62.4981 25.0203V15.6355H64.8096V25.0203H62.4981ZM61.5928 25.1667L61.6602 24.3073C61.9684 24.1707 62.3697 24.0437 62.8641 23.9265L62.4981 24.9226V23.3894H64.8096V24.9226L64.4918 24.0046L65.6765 24.2878L65.609 25.1667H61.5928ZM65.7149 15.4987L65.6475 16.3581C65.3394 16.4949 64.938 16.6218 64.4437 16.739L64.8096 15.7429V17.2761H62.4981V15.7429L62.8352 16.6609L61.5542 16.3777L61.6217 15.4987H65.7149ZM74.0069 25.2253L71.5025 16.3581L72.0515 16.6121L70.8286 16.3777L70.8956 15.4987H74.9984L74.9313 16.3777C74.6743 16.4949 74.2699 16.6055 73.7176 16.7097L73.9293 16.4167L75.9426 24.4245L76.222 25.1765C75.9268 25.2091 75.5731 25.2286 75.1621 25.2351C74.7512 25.2481 74.3665 25.2449 74.0069 25.2253ZM76.222 25.1765L74.9984 25.03L77.2812 15.821L78.6008 15.8308L76.222 25.1765ZM79.5831 25.2253L77.4357 16.4363L77.2812 15.821C77.6021 15.7885 77.9492 15.7689 78.3214 15.7625C78.6942 15.7494 79.0597 15.7494 79.4194 15.7625L81.4997 24.4148L81.7982 25.1765C81.503 25.2091 81.1499 25.2286 80.739 25.2351C80.328 25.2481 79.9428 25.2449 79.5831 25.2253ZM81.7982 25.1765L80.5562 25.0203L82.7805 16.3679L83.0409 16.6413L81.7022 16.3777L81.7693 15.4987H84.8897L84.8227 16.3581C84.7004 16.4233 84.5399 16.4883 84.3407 16.5535C84.1481 16.6185 83.9298 16.6771 83.6859 16.7293L84.2737 16.3777L81.7982 25.1765ZM90.8414 15.4402L93.8948 24.2976L93.3359 24.0535L94.5588 24.2878L94.4918 25.1667H90.4659L90.533 24.2683C90.8157 24.1381 91.1819 24.0274 91.631 23.9363L91.4384 24.1999L88.857 16.1042L88.4718 15.489C88.8123 15.4565 89.1845 15.4369 89.5895 15.4304C90.0004 15.4174 90.4173 15.4207 90.8414 15.4402ZM89.7913 15.4987L86.9602 24.2976L86.7386 24.0241L87.9714 24.2878L87.9037 25.1667H84.8411L84.9088 24.3073C85.0304 24.2357 85.1909 24.1707 85.3901 24.1121C85.5893 24.0469 85.8076 23.9883 86.0449 23.9363L85.4381 24.2976L88.4718 15.489L89.7913 15.4987ZM86.8057 22.5789L87.1239 21.3679H91.7566L92.084 22.5789H86.8057ZM97.7943 21.8073L95.0013 16.3679L95.5885 16.6121L94.3655 16.3777L94.4332 15.4987H98.5551L98.488 16.3777C98.2309 16.4949 97.8266 16.6055 97.2743 16.7097L97.4478 16.4655L99.7589 21.1335L100.086 21.7585L97.7943 21.8073ZM98.7286 21.7487L101.339 16.3679L101.551 16.6413L100.202 16.3777L100.27 15.4987H103.428L103.361 16.3581C103.239 16.4233 103.079 16.4883 102.879 16.5535C102.687 16.6185 102.468 16.6771 102.225 16.7293L102.87 16.3679L100.086 21.7585L98.7286 21.7487ZM97.7845 25.0203V21.1237H100.096V25.0203H97.7845ZM96.7253 25.1667L96.793 24.3073C96.9791 24.2293 97.1875 24.1609 97.4189 24.1023C97.6563 24.0437 97.9002 23.9949 98.1507 23.9558L97.7845 24.9226V23.3894H100.096V24.9226L99.7589 24.0144L101.194 24.2878L101.127 25.1667H96.7253ZM107.762 25.323C106.49 25.323 105.457 25.03 104.661 24.4441C104.5 23.3829 104.461 22.4812 104.545 21.739H105.537L106.674 24.1902L105.845 23.5359C106.539 23.933 107.252 24.1316 107.984 24.1316C108.485 24.1316 108.87 24.0307 109.139 23.8289C109.409 23.627 109.544 23.3405 109.544 22.9695C109.544 22.657 109.438 22.3998 109.226 22.198C109.014 21.9897 108.671 21.8106 108.195 21.6609L107.078 21.3093C105.396 20.782 104.555 19.8119 104.555 18.3991C104.555 17.4681 104.885 16.726 105.547 16.1726C106.208 15.6192 107.097 15.3425 108.214 15.3425C109.235 15.3425 110.16 15.5573 110.988 15.9871C111.116 16.8725 111.155 17.6765 111.104 18.3991H110.074L109.13 16.407L110.131 17.1296C109.38 16.7325 108.667 16.5339 107.993 16.5339C107.088 16.5339 106.635 16.8953 106.635 17.6179C106.635 17.9369 106.747 18.2039 106.972 18.4187C107.203 18.6335 107.573 18.8223 108.08 18.9851L109.197 19.3367C110.841 19.8575 111.663 20.8047 111.663 22.1785C111.663 23.142 111.309 23.907 110.603 24.4734C109.903 25.0398 108.956 25.323 107.762 25.323Z" class="svg-color"/>
</g>
</svg>
