<svg width="16" height="20" fill="none" xmlns="http://www.w3.org/2000/svg"><path d="M3.007 3.007 0 6.013v6.088c0 6.642-.009 6.258.15 6.648.193.477.624.907 1.103 1.102.388.158-.002.149 6.747.149s6.359.009 6.747-.149c.479-.195.91-.625 1.103-1.102.16-.394.15.194.15-8.749 0-8.943.01-8.355-.15-8.749a2.032 2.032 0 0 0-.981-1.038C14.402-.013 14.702 0 10.084 0H6.013L3.007 3.007m5.37 5.034c.153.029.311.084.502.177.244.118.309.165.523.38.215.214.262.279.38.523.288.594.289 1.161.005 1.748-.396.817-1.299 1.271-2.171 1.091a2.002 2.002 0 0 1-1.403-1.091c-.284-.587-.283-1.154.005-1.748.118-.244.165-.309.38-.523.214-.215.279-.262.523-.38a1.887 1.887 0 0 1 1.256-.177m.428 5.012c.796.093 1.726.369 2.213.655.434.256.76.68.904 1.176.045.153.06.296.071.656l.014.46H3.993l.014-.46c.011-.36.026-.503.071-.656.144-.496.47-.92.904-1.176.482-.284 1.403-.559 2.191-.655a9.266 9.266 0 0 1 1.632 0" fill="#11397E" fill-rule="evenodd"/></svg>