<svg width="28" height="28" fill="none" xmlns="http://www.w3.org/2000/svg"><path d="M13.207.704a13.141 13.141 0 0 0-8.438 3.703C3.232 5.899 2.17 7.52 1.476 9.436a13.295 13.295 0 0 0 1.076 11.386c.576.965 1.154 1.697 2.042 2.584 1.462 1.463 2.995 2.449 4.858 3.124 3.77 1.366 7.93.971 11.37-1.082.965-.576 1.697-1.154 2.584-2.042 1.463-1.462 2.449-2.995 3.124-4.858 1.366-3.77.971-7.93-1.082-11.37C24.406 5.431 22.81 3.8 21.07 2.703 18.756 1.245 16.019.549 13.207.704m2.618 2.788c3.102.581 5.655 2.33 7.299 5.001.666 1.083 1.131 2.326 1.388 3.71.091.49.104.717.104 1.797 0 1.332-.052 1.776-.324 2.787-.917 3.403-3.559 6.204-6.903 7.318-1.196.398-2.111.546-3.389.546-1.278 0-2.193-.148-3.389-.546-3.345-1.114-5.986-3.914-6.903-7.318-.272-1.011-.324-1.455-.324-2.787 0-1.332.052-1.776.324-2.787.984-3.652 3.948-6.585 7.606-7.528.438-.112.929-.204 1.589-.297.077-.011.655-.013 1.284-.004.891.012 1.252.036 1.638.108m-3.147 3.865c-.017.018-.031.616-.031 1.331v1.299h2.708l-.013-1.319-.012-1.318-1.31-.012c-.72-.007-1.324.002-1.342.019m-.02 9.315.012 3.978h2.66l.012-3.978.012-3.979h-2.708l.012 3.979" fill="#49454F" fill-rule="evenodd"/></svg>