<svg width="22" height="18" fill="none" xmlns="http://www.w3.org/2000/svg"><path d="M10.414.26c-1.691.188-3.191 1.246-3.97 2.802-.206.411-.396.968-.413 1.21-.055.784-.061 1.247-.02 1.569.273 2.174 1.844 3.875 4.011 4.343.423.091 1.534.091 1.957-.001.454-.098.83-.23 1.276-.449.945-.465 1.808-1.344 2.252-2.295a4.616 4.616 0 0 0 .467-1.939c.044-1.087-.201-2.004-.801-2.993-.551-.911-1.496-1.651-2.563-2.008-.638-.213-1.54-.312-2.196-.239M6.846 10.323a7.162 7.162 0 0 0-2.482.739c-1.669.84-2.747 2.16-3.193 3.909a6.8 6.8 0 0 0-.18 1.298l-.001.228.184.055c.658.195 2.55.563 3.886.754 4.512.648 8.815.572 13.36-.237.74-.132 2.072-.418 2.406-.517l.184-.055-.001-.228c-.003-1.063-.44-2.387-1.088-3.3-.288-.406-.98-1.092-1.404-1.393-.93-.658-2.147-1.11-3.365-1.25l-.425-.049-.358.234a6.172 6.172 0 0 1-6.746-.005 5.878 5.878 0 0 0-.373-.235c-.005.002-.186.025-.404.052" fill="#11397E" fill-rule="evenodd"/></svg>